<?xml version="1.0" encoding="utf-8"?>
<!-- Generator: Adobe Illustrator 23.0.3, SVG Export Plug-In . SVG Version: 6.00 Build 0)  -->
<svg version="1.1" id="Layer_1" xmlns="http://www.w3.org/2000/svg" xmlns:xlink="http://www.w3.org/1999/xlink" x="0px" y="0px"
	 viewBox="0 0 729 561" style="enable-background:new 0 0 729 561;" xml:space="preserve">
<style type="text/css">
	.st0{fill:#FAA21A;}
	.st1{fill:#FFFFFF;}
</style>
<title>Logo ĐH Thành Đô-White</title>
<path class="st0" d="M255,166.5V28c15.5-0.5,31.1,0.6,45.9,5.4c18.7,5.8,35.8,17.5,47,33.7C354.1,76,358.5,86,361,96.5
	c4.7-21.8,18.8-41.1,37.7-52.8C418.8,30.9,443.4,27.1,467,28c0,45.8,0,91.7,0,137.5c-0.8,14-12,25.1-24.7,29.6
	c12.1-0.1,24.2,0.1,36.3-0.1c6.9-0.6,14.4-1.9,19.4-7.1c5.8-5.4,7-13.8,7.5-21.3c0.1-24.6,0-49.1,0-73.7c-7.9,1-15.4,4-21.8,8.7
	c-3.3,2.3-5.8,5.5-8.9,8c2.3-16.6,10.3-32.8,24-42.8c12.2-9.3,27.7-12.7,42.8-13.4v87.1c-0.1,8.8,0.6,17.8-1.4,26.5
	c-1.7,8.2-5.6,16.5-12.8,21.3c-4.7,3.4-10.4,4.9-15.7,7.3c-2.9,1.3-5.1,3.7-6.3,6.6c-2.7,5.8-5.1,11.9-9.5,16.7
	c-7.5,8.6-19.3,11.6-30.3,12.2c-14.4,0-28.7,0-43.1,0c-13.1,0.7-27,5.6-35,16.5c-6.9,9.1-8.6,20.9-8.5,32
	c12.4-10.9,29.7-12.9,45.5-13.5c48.2,0,96.3,0,144.5,0c-2.8-13.2-11.1-25.3-23-32c-13.6-7.8-30-8.7-45.2-6.6
	c14.7-10.9,32.1-19.1,50.6-19.8c11.8-0.3,23.4,3.2,33,10c13.6,9.7,22.6,24.6,27.7,40.3c4.2,13.1,6.2,26.8,6,40.5
	c-171.4,0-342.9,0-514.3,0c0.2-20,3.9-40.6,13.8-58.2c7.5-13.4,19.2-25,34.1-29.9c14.4-4.9,30.2-2.9,44.1,2.7
	c9,3.6,17.5,8.4,25.3,14.3c-15.1-2.1-31.4-1.2-44.9,6.5c-11.9,6.7-20.2,18.8-23.2,32c48.9,0.3,97.8,0,146.7,0.1
	c15,0.8,31.1,3.1,43,13.1c0.7-12.1-1.9-25.2-10.4-34.3c-8-8.9-20-13-31.6-13.8c-13-0.1-26,0-39.1,0c-9.8,0.2-19.9-1.3-28.4-6.3
	c-6.3-3.9-10.9-10-13.9-16.7c-2.4-4.7-3.9-10.8-9.5-12.8c-7.6-3-16-5.8-21.1-12.7c-8.2-10.8-8.5-25.1-8.5-38.1
	c0.1-30.3-0.1-60.7,0.1-91c15.6,0.5,31.8,4.3,44.2,14.3c12.9,10.1,20.7,25.9,22.6,42.1c-7.6-9-18.5-15.6-30.4-17
	c0,24.9,0,49.8,0,74.7c0.3,7.3,2.1,15.2,7.4,20.5c5.5,5.2,13.4,6.4,20.6,7c11.7,0.1,23.4-0.1,35,0.1
	C267.3,190.5,256,180.1,255,166.5z M289.5,66.5v88.9c-0.4,8.9,1,17.8,3.9,26.3c2,5.4,6.2,10.4,12.2,11.4c9.6,1.4,19.5,1.8,28.8,4.7
	c8.3,2.6,16.5,7.1,21.4,14.5c2.4,3.7,4.2,7.8,5.3,12.2c1.6-8.3,6.4-15.6,13.4-20.4c11.7-8.1,26.4-9.1,40.1-10.6
	c6.2-0.4,11.3-5,13.5-10.6c3-7.8,4.4-16.1,4.2-24.4c-0.1-30.6,0.1-61.2-0.1-91.8c-13.3,3.1-24.1,13-31,24.4
	c-8.1,13.3-10.5,30.2-5.5,45.1c2.4,7,5.3,14.5,3.3,21.9c-1.8,5.7-8.1,7.4-12.9,9.7c-8.9,3.4-17.6,8.6-22.5,17c0-9.7,0-19.4,0-29.1
	c6.3-5.1,8.6-13.5,9-21.3c0.2-8.2-3.8-17-11.8-19.9c-6.9,3.2-11.3,10.2-11.2,17.9c-0.4,8.4,2.1,17.7,8.8,23.2c0.1,9.7,0,19.4,0,29.2
	c-2-3-4.3-5.8-7-8.2c-5.1-4.7-11.7-7.2-18-9.9c-3.6-1.8-8.1-3.3-9.9-7.3c-3.1-7-0.1-14.8,2.2-21.6c4.8-13.3,4.2-28-1.7-40.8
	C317.3,82.7,305,70.3,289.5,66.5z"/>
<path class="st1" d="M645,353.2c7.4-1.4,15-0.7,22.5-0.8c8.2-0.2,16.1,2.5,22.6,7.5c9.2,7.1,14.6,18.1,14.5,29.7
	c-0.2,7.7,0.3,15.4-0.3,23.1c-1.7,15.4-12.9,28.1-28,31.7c-7.1,1.5-14.5,0.8-21.7,1c-7.2,0.2-14.2-1.6-20.4-5.3
	c-11-6.7-17.6-18.6-17.6-31.4c0.1-7.7-0.2-15.4,0.2-23.1C617.9,370.1,629.9,356.4,645,353.2z M651.9,374c-5.1,1.5-9,5.5-10.5,10.6
	c-1.4,5.8-0.5,11.9-0.8,17.9s0.2,12.7,5,16.9c5.1,5.5,13.2,4.2,19.9,4.2c7.4-0.1,14-6.4,14.7-13.6c0.4-4.8,0.1-9.6,0.2-14.4
	c-0.1-4.4,0.5-9.2-1.6-13.3c-2.6-5.5-8.2-8.9-14.2-8.7C660.3,373.7,656,373,651.9,374L651.9,374z"/>
<path class="st1" d="M26,353.8c27.3,0,54.7,0,82,0c0,4.9,0.1,9.8,0,14.7c0.1,3.1-2.4,5.7-5.5,5.9c-7.8,0.1-15.7,0-23.5,0v69
	c-7.9,0-15.7,0-23.6,0c0-23,0-46,0-69c-8,0-16,0-24,0c-2.4,0-5.2-1.5-5.3-4.1C25.8,364.8,26,359.3,26,353.8z"/>
<path class="st1" d="M116,353.5c5.9,0,11.8-0.2,17.8,0.1c3.8,0.4,6.5,4,6.7,7.7c0.1,9.1,0,18.1,0.1,27.2h36c0-9.7-0.1-19.4,0-29.2
	c0.2-3.2,2.8-5.7,6-5.7c6.1-0.3,12.1,0,18.2-0.1c0.1,30,0.1,60,0,90c-5.8-0.1-11.5,0.2-17.3-0.1c-4-0.3-7-3.7-7-7.7
	c0-9,0-18.1,0-27.1h-36c0,9.4,0,18.7,0,28.1c0.1,3.1-1.9,6.3-5.1,6.6c-6.4,0.5-12.9,0.1-19.3,0.2C116,413.5,116,383.5,116,353.5z"/>
<path class="st1" d="M309.5,353.5c5.6,0,11.3-0.2,17,0.1c6.6,1.3,11.2,6.9,15.2,11.8c9.3,13.1,18.5,26.3,27.8,39.4
	c0-13.5,0-27,0-40.4c0-4.4,2.6-9,7.1-10.1c5.8-1.5,11.9-0.6,17.8-0.8c0.1,30,0.1,60,0,89.9c-5,0.1-9.9,0-14.9,0
	c-3.4,0-7-0.3-9.8-2.2c-3.8-2.6-6.3-6.5-8.9-10.2c-9-12.8-17.9-25.6-26.9-38.3c-0.1,13.2,0,26.5,0,39.7c-0.3,3.2,0.2,6.8-1.7,9.6
	c-1.9,1.4-4.4,1.3-6.7,1.4c-5.3-0.1-10.6,0-15.9-0.1C309.5,413.5,309.5,383.5,309.5,353.5z"/>
<path class="st1" d="M403.5,353.5c5.4,0,10.7-0.1,16.1,0c2.5,0.1,5.3,1,6.7,3.3c1.5,2.2,1.5,5.1,1.5,7.7c0,8,0,16,0,24
	c12,0,23.9,0,35.9,0c0.1-8.7,0-17.3,0-26c0.1-2.4-0.1-5.2,1.8-7c1.8-1.9,4.5-2,6.9-2c5.2,0,10.4,0,15.5,0c0,30,0,60,0,90
	c-5.9-0.1-11.8,0.2-17.7-0.2c-3.7-0.5-6.4-3.7-6.5-7.4c-0.4-9.1,0-18.2-0.2-27.3c-12,0-23.9,0-35.9,0c-0.1,9.6,0.2,19.3-0.2,28.9
	c0.1,3.3-2.9,5.8-6.1,5.9c-6,0.3-12,0-18,0.1L403.5,353.5z"/>
<path class="st1" d="M233,369.9c3.1-8.9,11.9-15.6,21.4-15.4c10-0.1,19.4,7,22.5,16.5c8.5,24.2,17.4,48.3,25.7,72.6
	c-6-0.1-12.1,0.2-18.1-0.1c-4.3-0.4-8-3.2-9.6-7.3c-1.6-4.3-2.6-8.8-4-13.2c-10.7,0-21.4,0-32.1,0c-1.6,4.5-2.7,9-4.4,13.4
	c-1.8,3.8-5.4,7.1-9.8,7.2c-5.9,0.1-11.9,0-17.8,0C215.4,418.9,224.3,394.4,233,369.9z M254.7,374.5c-2.9,9.4-6,18.6-8.9,28h17.7
	C260.6,393.2,257.6,383.8,254.7,374.5z"/>
<path class="st1" d="M523.9,443.5c0-29.9,0-59.7,0-89.6c17.2,0,34.4,0,51.6,0c9.6,0.6,20.7,2.4,26.8,10.8c6.9,9.9,5,22.4,5.3,33.7
	c-0.3,9.5,1.2,19.5-2.5,28.5c-2.7,6.6-8.1,11.7-14.9,14c-8.1,3.1-17,2.4-25.5,2.5L523.9,443.5z M547.6,375.5c0,15.3,0,30.7,0,46
	c8.6-0.1,17.2,0.2,25.8-0.1c4.8-0.3,9.5-3.9,9.6-9c0.2-8.9,0.3-17.9,0-26.9c0-4.7-3.3-9.6-8.3-10
	C565.7,375.4,556.6,375.6,547.6,375.5z"/>
<path class="st1" d="M30.4,477.5h6.9c0,11.3,0,22.7,0,34c0.1,3.9,0,8,1.6,11.7c1.8,4.4,5.9,7.5,10.6,8.2c5.3,0.8,11.4,0.5,15.8-3
	c4-3.4,5.2-9,5.2-14c0-12.3,0-24.6,0-36.9h7v38c-0.1,6.4-2.3,13.3-7.5,17.4c-5.4,4.5-12.9,5.1-19.6,4.6c-6-0.4-12.3-2.8-15.8-7.9
	c-3.1-4.3-4.3-9.8-4.2-15C30.4,502.2,30.4,489.8,30.4,477.5z"/>
<path class="st1" d="M113.1,477.5h5.6c11.8,15.9,23.6,31.7,35.5,47.5c-0.1-15.8,0-31.7,0-47.5c2.3,0,4.5,0,6.8,0
	c0,19.8,0,39.7,0,59.5h-5.6c-11.8-15.8-23.6-31.6-35.4-47.3c0,15.8,0,31.6,0,47.3h-6.8C113.1,517.2,113.1,497.3,113.1,477.5z"/>
<path class="st1" d="M196.6,477.5h7.1c0,19.8,0,39.7,0,59.5h-7.1V477.5z"/>
<path class="st1" d="M233,477.5c2.5,0,5,0,7.5,0c7.2,16.8,14.5,33.6,21.5,50.5c7.3-16.8,14.5-33.6,21.6-50.5c2.5,0,4.9,0,7.4,0
	c-8.7,19.8-17.3,39.7-25.9,59.5c-2.1,0-4.2,0-6.3-0.1C250.3,517.1,241.6,497.3,233,477.5z"/>
<path class="st1" d="M319.6,477.5h37.9c0,1.9,0,3.8,0,5.7c-10.3,0.1-20.6,0-30.9,0.1c0,6.9,0,13.8,0,20.8c9.7,0,19.4,0,29.1,0
	c0,1.9,0,3.8,0,5.7c-9.7,0-19.4,0-29,0c-0.1,7.2-0.1,14.4,0,21.6c10.3,0.1,20.6,0,30.9,0c0,1.9,0,3.7,0,5.6h-37.9
	C319.6,517.2,319.6,497.3,319.6,477.5z"/>
<path class="st1" d="M390.6,477.5h25.9c6.3,0.1,13.3,2.7,16.1,8.7s2.3,14-2.5,19c-2,1.9-4.4,3.4-7,4.3c2.9,1,5.1,3.2,6.2,6.1
	c2.8,7.1,5.4,14.4,8.1,21.6c-2.5,0-5-0.1-7.5-0.1c-2.7-7-5.1-14.2-8-21.2c-1.2-3.1-4.5-4.5-7.6-4.6c-5.6-0.4-11.2-0.1-16.8-0.1
	c0,8.6,0,17.3,0,26h-7L390.6,477.5z M397.6,483.2c0,7.4,0,14.8,0,22.1c5.3,0,10.6,0.1,15.9,0c3.7-0.2,7.8-0.5,10.7-3.1
	c3.6-3.4,3.9-9.1,2-13.5c-1.6-3.8-6-5.2-9.8-5.4C410.2,483,403.9,483.2,397.6,483.2L397.6,483.2z"/>
<path class="st1" d="M473,482c5.9-5,14-5.7,21.4-4.8c5.7,0.7,11.1,3.2,15.4,7.1c-0.9,1.9-1.8,3.7-2.7,5.5c-4.4-3.7-9.6-6.7-15.4-7
	c-5.1-0.4-10.8,0.2-14.6,4c-3.5,3.8-3.6,11.2,1.3,13.8c7.9,4.4,17.5,4.3,25.5,8.6c4,2.2,7.2,6.5,6.8,11.3
	c0.6,7.4-5.4,13.8-12.2,15.7c-10.7,2.9-23.4,1.5-32-6l2.7-5.3c7.8,6.5,18.5,8.6,28.2,5.5c6-1.9,9-11.1,3.3-15
	c-8.7-5.3-20.2-4-28.4-10.6C465.2,499.2,466.3,487.4,473,482z"/>
<path class="st1" d="M543.6,477.5h7.1c0,19.8,0,39.7,0,59.5h-7.1V477.5z"/>
<path class="st1" d="M580.5,477.5c16.1,0,32.3,0,48.4,0c0,1.9,0,3.8,0,5.7c-6.9,0.1-13.9,0-20.8,0c0,17.9,0,35.9,0,53.8h-7
	c0-17.9,0-35.9,0-53.8h-20.6C580.5,481.3,580.5,479.4,580.5,477.5z"/>
<path class="st1" d="M649.9,477.5c2.8,0,5.5,0,8.3,0c6.2,9.7,12.5,19.4,18.7,29.1c6.2-9.8,12.4-19.5,18.7-29.1h8
	c-7.7,11.7-15.5,23.4-23,35.1c-0.7,8.1-0.1,16.2-0.3,24.3h-7.2c0-7.8,0-15.6,0-23.4c0-1.3-0.9-2.2-1.5-3.2
	C664.3,499.5,657.1,488.5,649.9,477.5z"/>
</svg>
